<svg preserveAspectRatio="none" width="100%" height="100%" overflow="visible" style="display: block;" viewBox="0 0 12 12" fill="none" xmlns="http://www.w3.org/2000/svg">
<g id="SVG">
<path id="Vector" d="M8 10.5V9.49998C8 8.96955 7.78929 8.46084 7.41421 8.08577C7.03914 7.7107 6.53043 7.49998 6 7.49998H3C2.46957 7.49998 1.96086 7.7107 1.58579 8.08577C1.21071 8.46084 1 8.96955 1 9.49998V10.5" stroke="#FCFCFC" stroke-linecap="round" stroke-linejoin="round"/>
<path id="Vector_2" d="M4.5 5.49992C5.60457 5.49992 6.5 4.60449 6.5 3.49992C6.5 2.39535 5.60457 1.49992 4.5 1.49992C3.39543 1.49992 2.5 2.39535 2.5 3.49992C2.5 4.60449 3.39543 5.49992 4.5 5.49992Z" stroke="#FCFCFC" stroke-linecap="round" stroke-linejoin="round"/>
<path id="Vector_3" d="M9.5 3.99997V6.99997" stroke="#FCFCFC" stroke-linecap="round" stroke-linejoin="round"/>
<path id="Vector_4" d="M11 5.4999H8" stroke="#FCFCFC" stroke-linecap="round" stroke-linejoin="round"/>
</g>
</svg>
