<svg preserveAspectRatio="none" width="100%" height="100%" overflow="visible" style="display: block;" viewBox="0 0 13.5 13.5" fill="none" xmlns="http://www.w3.org/2000/svg">
<g id="SVG">
<path id="Vector" d="M6.74974 12.375C5.2579 12.375 3.82716 11.7824 2.77226 10.7275C1.71737 9.67258 1.12474 8.24184 1.12474 6.75C1.12474 5.25815 1.71737 3.82741 2.77226 2.77252C3.82716 1.71763 5.2579 1.125 6.74974 1.125C8.24158 1.125 9.67232 1.65836 10.7272 2.60777C11.7821 3.55717 12.3747 4.84484 12.3747 6.1875C12.3747 6.93342 12.0784 7.64879 11.551 8.17623C11.0235 8.70368 10.3082 9 9.56224 9H8.29661C8.1138 9 7.93461 9.0509 7.7791 9.14701C7.62359 9.24312 7.49792 9.38063 7.41616 9.54415C7.33441 9.70766 7.2998 9.8907 7.31622 10.0728C7.33263 10.2548 7.39943 10.4287 7.50911 10.575L7.67786 10.8C7.78755 10.9462 7.85434 11.1201 7.87076 11.3022C7.88718 11.4843 7.85257 11.6673 7.77082 11.8308C7.68906 11.9944 7.56339 12.1319 7.40788 12.228C7.25237 12.3241 7.07317 12.375 6.89036 12.375H6.74974Z" stroke="#071123" stroke-width="1.125" stroke-linecap="round" stroke-linejoin="round"/>
<path id="Vector_2" d="M7.59427 3.93785C7.74971 3.93785 7.87572 3.81184 7.87572 3.6564C7.87572 3.50097 7.74971 3.37496 7.59427 3.37496C7.43883 3.37496 7.31283 3.50097 7.31283 3.6564C7.31283 3.81184 7.43883 3.93785 7.59427 3.93785Z" fill="#071123" stroke="#071123" stroke-width="1.125" stroke-linecap="round" stroke-linejoin="round"/>
<path id="Vector_3" d="M9.84368 6.18787C9.99912 6.18787 10.1251 6.06187 10.1251 5.90643C10.1251 5.75099 9.99912 5.62498 9.84368 5.62498C9.68825 5.62498 9.56224 5.75099 9.56224 5.90643C9.56224 6.06187 9.68825 6.18787 9.84368 6.18787Z" fill="#071123" stroke="#071123" stroke-width="1.125" stroke-linecap="round" stroke-linejoin="round"/>
<path id="Vector_4" d="M3.65658 7.31289C3.81201 7.31289 3.93802 7.18688 3.93802 7.03144C3.93802 6.876 3.81201 6.75 3.65658 6.75C3.50114 6.75 3.37513 6.876 3.37513 7.03144C3.37513 7.18688 3.50114 7.31289 3.65658 7.31289Z" fill="#071123" stroke="#071123" stroke-width="1.125" stroke-linecap="round" stroke-linejoin="round"/>
<path id="Vector_5" d="M4.78177 4.50039C4.93721 4.50039 5.06322 4.37438 5.06322 4.21894C5.06322 4.0635 4.93721 3.9375 4.78177 3.9375C4.62633 3.9375 4.50033 4.0635 4.50033 4.21894C4.50033 4.37438 4.62633 4.50039 4.78177 4.50039Z" fill="#071123" stroke="#071123" stroke-width="1.125" stroke-linecap="round" stroke-linejoin="round"/>
</g>
</svg>
